<?xml version="1.0" encoding="UTF-8" standalone="no"?>
<!-- Created with Inkscape (http://www.inkscape.org/) -->

<svg
   width="512"
   height="512"
   viewBox="0 0 135.46666 135.46667"
   version="1.1"
   id="svg5"
   inkscape:version="1.1.2 (b8e25be833, 2022-02-05)"
   sodipodi:docname="swimming_stick_figure_1.svg"
   inkscape:export-filename="C:\Users\Grandkids\Documents\inkscape\kilsonx\swimming_stick_figure1.png"
   inkscape:export-xdpi="96"
   inkscape:export-ydpi="96"
   xmlns:inkscape="http://www.inkscape.org/namespaces/inkscape"
   xmlns:sodipodi="http://sodipodi.sourceforge.net/DTD/sodipodi-0.dtd"
   xmlns="http://www.w3.org/2000/svg"
   xmlns:svg="http://www.w3.org/2000/svg">
  <sodipodi:namedview
     id="namedview7"
     pagecolor="#ffffff"
     bordercolor="#666666"
     borderopacity="1.0"
     inkscape:pageshadow="2"
     inkscape:pageopacity="0.0"
     inkscape:pagecheckerboard="0"
     inkscape:document-units="mm"
     showgrid="false"
     units="px"
     inkscape:zoom="0.601762"
     inkscape:cx="-123.73534"
     inkscape:cy="245.16321"
     inkscape:window-width="1366"
     inkscape:window-height="745"
     inkscape:window-x="-8"
     inkscape:window-y="-8"
     inkscape:window-maximized="1"
     inkscape:current-layer="g29574" />
  <defs
     id="defs2" />
  <g
     inkscape:groupmode="layer"
     id="g29574"
     inkscape:label="backstroke_2"
     style="display:inline">
    <g
       inkscape:label="cap"
       inkscape:groupmode="layer"
       id="g29554"
       style="display:inline">
      <path
         id="path29548"
         style="fill:none;fill-rule:evenodd;stroke:#000000;stroke-width:0.999995;stroke-linecap:round;stroke-linejoin:round;stroke-miterlimit:20"
         d="m 33.687097,53.811414 c -3.885712,-6.989432 -2.980848,-12.664341 3.642414,-17.194335 6.623262,-4.529993 15.666998,-3.566766 18.467941,1.03148"
         sodipodi:nodetypes="csc" />
      <path
         style="fill:none;stroke:#000000;stroke-width:1;stroke-linecap:round;stroke-linejoin:miter;stroke-miterlimit:4;stroke-dasharray:none;stroke-opacity:1"
         d="m 55.797452,37.648559 c 0,0 9.032439,-4.837965 11.654275,-2.386623"
         id="path29550"
         sodipodi:nodetypes="cc" />
      <path
         style="fill:none;stroke:#000000;stroke-width:1;stroke-linecap:butt;stroke-linejoin:miter;stroke-miterlimit:4;stroke-dasharray:none;stroke-opacity:1"
         d="m 67.451727,35.261936 c 1.690086,0.847132 -6.075948,5.534113 -10.299994,8.130752 -1.311207,0.802957 -6.167225,3.334483 -8.142101,4.432696 -6.440186,3.581335 -9.031162,4.34059 -15.322535,5.98603"
         id="path29552"
         sodipodi:nodetypes="ccsc" />
    </g>
    <g
       inkscape:groupmode="layer"
       id="g29572"
       inkscape:label="face"
       style="display:inline">
      <path
         id="path29556"
         style="fill:#000000;fill-opacity:1;fill-rule:evenodd;stroke:#000000;stroke-width:1.88976;stroke-linecap:round;stroke-linejoin:round;stroke-miterlimit:4;stroke-dasharray:none"
         d="M 191.61914 187.39844 A 4.3606739 3.9620144 0 0 0 187.86523 189.40625 A 4.3606739 3.9620144 0 0 0 189.5 194.80273 A 4.3606739 3.9620144 0 0 0 195.44336 193.32617 A 4.3606739 3.9620144 0 0 0 193.82812 187.92383 L 193.80273 187.91016 A 4.3606739 3.9620144 0 0 0 191.61914 187.39844 z "
         transform="scale(0.26458333)" />
      <path
         id="path29558"
         style="fill:#000000;fill-opacity:1;fill-rule:evenodd;stroke:#000000;stroke-width:1.88976;stroke-linecap:round;stroke-linejoin:round;stroke-miterlimit:4;stroke-dasharray:none"
         d="M 209.29688 178.24414 A 4.3606739 3.9620144 0 0 0 205.54102 180.25195 A 4.3606739 3.9620144 0 0 0 207.17773 185.64844 A 4.3606739 3.9620144 0 0 0 213.12109 184.17188 A 4.3606739 3.9620144 0 0 0 211.50586 178.76953 L 211.47852 178.75586 A 4.3606739 3.9620144 0 0 0 209.29688 178.24414 z "
         transform="scale(0.26458333)" />
      <path
         id="path29560"
         style="color:#000000;fill:#000000;fill-rule:evenodd;stroke-width:3.77953;stroke-linecap:round;stroke-linejoin:round;-inkscape-stroke:none"
         d="m 160.64453,192.66406 c -1.28586,0.0412 -3.07087,2.14559 -5.14844,3.00977 -2.89316,1.20004 -7.29915,-0.25194 -6.09765,2.64062 0,0 10.191,20.60043 14.96289,32.83399 2.53454,6.49773 2.75225,20.05792 6.8789,25.15429 7.27353,5.30098 14.91633,0.40266 21.08594,0.16211 22.92269,-0.92736 36.03605,-2.8905 44.58594,-6.37695 4.27494,-1.74322 7.51552,-4.02601 9.69336,-6.87305 2.17784,-2.84703 3.07793,-6.01522 3.50586,-8.70312 l 0.0371,-0.22266 0.0137,-0.22851 c 0.48625,-6.25214 -2.61195,-10.7012 -5.11523,-14.85938 -1.25165,-2.07909 -2.49014,-3.9044 -3.43165,-5.23437 -0.47075,-0.66499 -0.86473,-1.2015 -1.15234,-1.58594 -0.94688,-1.20894 -2.14613,-1.85316 -2.74023,-3.9375 -0.0973,0.0439 -0.37354,0.26798 -0.71875,0.56445 -0.54968,-1.45005 -1.31372,-3.73418 -2.88672,-6.05664 -4.39709,-4.2858 -7.09128,-8.29845 -13.88867,-7.0957 -9.66062,2.5139 -19.9535,7.86461 -22.38086,10.57422 -2.55922,2.79915 -1.85005,15.7953 -12.10743,16.29883 -9.65458,0.49753 -18.51171,-16.0625 -18.51171,-16.0625 -3.06456,-7.02885 -5.31641,-12.9043 -5.31641,-12.9043 -0.33832,-0.81289 -0.76442,-1.11379 -1.26758,-1.09766 z m 62.14844,12.73633 c 4.47717,-0.0618 6.10756,3.45005 6.1582,7.16602 -3.7965,9.55924 -3.93019,9.11074 -17.82031,10.26171 -3.11481,-0.0528 -6.70693,-5.47418 -6.16992,-7.55468 0.77723,-2.71214 15.89108,-9.91091 17.83203,-9.87305 z"
         transform="scale(0.26458333)"
         sodipodi:nodetypes="sccsccsscccsscccccccccsccccc" />
      <path
         style="fill:none;stroke:#000000;stroke-width:0.5;stroke-linecap:butt;stroke-linejoin:miter;stroke-miterlimit:4;stroke-dasharray:none;stroke-opacity:1"
         d="m 38.562979,53.886951 c -6.767761,0.250423 2.039584,9.137335 2.365918,5.874001"
         id="path29564"
         sodipodi:nodetypes="cc" />
      <path
         style="fill:none;stroke:#000000;stroke-width:0.264583px;stroke-linecap:butt;stroke-linejoin:miter;stroke-opacity:1"
         d="m 55.400909,57.357746 c 0.08549,0.81862 4.144914,-1.177725 3.589666,-1.957998"
         id="path29566"
         sodipodi:nodetypes="cc" />
      <path
         id="path29570"
         style="display:inline;fill:none;fill-rule:evenodd;stroke:#000000;stroke-linecap:round;stroke-linejoin:round;stroke-miterlimit:20"
         d="m 56.831368,43.896852 c 4.679983,7.394416 7.22668,12.447177 4.969595,17.343183 -2.23047,4.838273 -7.510099,5.927852 -13.554122,7.121806 -2.872569,0.567455 -9.361195,-3.737103 -13.807179,-14.548746"
         sodipodi:nodetypes="cssc" />
    </g>
    <g
       inkscape:groupmode="layer"
       id="g29594"
       inkscape:label="arms+legs"
       style="display:inline">
      <path
         style="fill:none;stroke:#000000;stroke-width:1.09322;stroke-linecap:round;stroke-linejoin:miter;stroke-miterlimit:4;stroke-dasharray:none;stroke-opacity:1"
         d="m 40.511598,73.087657 c 0,0 8.477972,0.872997 27.317947,6.086296 -0.833353,0.851799 1.090689,3.980279 2.496049,5.629848 2.153159,2.546435 4.386842,4.620426 7.160967,4.122928 2.34761,-0.638226 -3.755451,-9.015825 -5.037446,-7.516504 -3.618359,-3.108803 -4.619569,-2.236272 -4.619569,-2.236272"
         id="path29586"
         sodipodi:nodetypes="cccccc" />
      <path
         style="display:inline;fill:none;stroke:#000000;stroke-width:1.09322;stroke-linecap:round;stroke-linejoin:miter;stroke-miterlimit:4;stroke-dasharray:none;stroke-opacity:1"
         d="m 30.018906,44.866985 c 0,0 -6.519498,-5.48947 -19.16656,-20.395006 1.168109,-0.235715 2.744127,-6.020138 1.101965,-6.05897 -0.348454,-3.316473 3.18332,-5.415434 0.609635,-6.56408 -2.300143,-0.792431 -5.2650019,4.521699 -4.2739464,8.176066 1.2437782,4.605448 2.5623464,4.446984 2.5623464,4.446984"
         id="path29586-4"
         sodipodi:nodetypes="cccccc" />
      <path
         style="fill:none;stroke:#000000;stroke-width:1;stroke-linecap:round;stroke-linejoin:miter;stroke-miterlimit:4;stroke-dasharray:none;stroke-opacity:1"
         d="m 79.000388,97.900382 c 6.276576,9.426608 4.37854,13.083398 4.37854,13.083398 0,0 5.875971,2.12596 6.684214,5.73417 1.327426,5.27482 -0.961128,7.89703 -2.652717,8.09164 -2.340205,-0.26226 -1.457514,-4.22964 -2.221266,-6.15387 -0.243783,-1.87316 -3.865488,-4.50663 -1.810231,-7.67194"
         id="path29592"
         sodipodi:nodetypes="cccccc" />
      <path
         style="display:inline;fill:none;stroke:#000000;stroke-width:1;stroke-linecap:round;stroke-linejoin:miter;stroke-miterlimit:4;stroke-dasharray:none;stroke-opacity:1"
         d="m 83.758679,92.290363 c 11.238181,-1.399944 13.660571,1.932709 13.660571,1.932709 0,0 4.52869,-4.305565 8.11756,-3.415379 5.31177,1.170876 6.63415,4.390304 6.05197,5.990438 -1.28086,1.97605 -4.43503,-0.587237 -6.4977,-0.764351 -1.78452,-0.619376 -5.75933,1.442851 -7.67183,-1.810708"
         id="path29592-4"
         sodipodi:nodetypes="cccccc" />
    </g>
  </g>
</svg>
