<?xml version="1.0" encoding="UTF-8" standalone="no"?>
<!-- Created with Inkscape (http://www.inkscape.org/) -->

<svg
   width="2020"
   height="100"
   viewBox="0 0 534.45832 26.458334"
   version="1.1"
   id="svg5"
   inkscape:version="1.1.2 (b8e25be833, 2022-02-05)"
   sodipodi:docname="wavy_line.svg"
   xmlns:inkscape="http://www.inkscape.org/namespaces/inkscape"
   xmlns:sodipodi="http://sodipodi.sourceforge.net/DTD/sodipodi-0.dtd"
   xmlns="http://www.w3.org/2000/svg"
   xmlns:svg="http://www.w3.org/2000/svg">
  <sodipodi:namedview
     id="namedview7"
     pagecolor="#ffffff"
     bordercolor="#666666"
     borderopacity="1.0"
     inkscape:pageshadow="2"
     inkscape:pageopacity="0.0"
     inkscape:pagecheckerboard="0"
     inkscape:document-units="mm"
     showgrid="false"
     units="px"
     inkscape:zoom="0.35212985"
     inkscape:cx="1060.6883"
     inkscape:cy="0"
     inkscape:window-width="1366"
     inkscape:window-height="745"
     inkscape:window-x="-8"
     inkscape:window-y="-8"
     inkscape:window-maximized="1"
     inkscape:current-layer="layer1" />
  <defs
     id="defs2">
    <inkscape:path-effect
       effect="rough_hatches"
       id="path-effect2262"
       is_visible="true"
       lpeversion="1"
       direction="266.18426,6.884869 , 133.09213,0"
       dist_rdm="10;1"
       growth="1"
       do_bend="true"
       bender="266.18426,11.884869 , 5,0"
       bottom_edge_variation="20;1"
       top_edge_variation="5;1"
       bottom_tgt_variation="10;1"
       top_tgt_variation="10;1"
       scale_bf="0"
       scale_bb="0.1"
       scale_tf="0"
       scale_tb="0"
       top_smth_variation="5;1"
       bottom_smth_variation="0;1"
       fat_output="true"
       stroke_width_top="0"
       stroke_width_bottom="0"
       front_thickness="0"
       back_thickness="0" />
    <inkscape:path-effect
       effect="rough_hatches"
       id="path-effect1692"
       is_visible="true"
       lpeversion="1"
       direction="266.18426,8.813953 , 133.09213,0"
       dist_rdm="75;1"
       growth="0"
       do_bend="true"
       bender="266.18426,13.813953 , 5,0"
       bottom_edge_variation="0;1"
       top_edge_variation="0;1"
       bottom_tgt_variation="0;1"
       top_tgt_variation="0;1"
       scale_bf="1"
       scale_bb="1"
       scale_tf="1"
       scale_tb="1"
       top_smth_variation="0;1"
       bottom_smth_variation="0;1"
       fat_output="true"
       stroke_width_top="1"
       stroke_width_bottom="1"
       front_thickness="1"
       back_thickness="0.25" />
    <inkscape:path-effect
       effect="vonkoch"
       id="path-effect1690"
       is_visible="true"
       lpeversion="1"
       ref_path="M 0,13.813953 H 532.36852"
       generator="m 0,13.813953 h 177.45617 m 177.45618,0 h 177.45617"
       similar_only="false"
       nbgenerations="1"
       drawall="true"
       maxComplexity="1000" />
    <inkscape:path-effect
       effect="sketch"
       id="path-effect1574"
       is_visible="true"
       lpeversion="1"
       nbiter_approxstrokes="1"
       strokelength="5"
       strokelength_rdm="0;1"
       strokeoverlap="0"
       strokeoverlap_rdm="0;1"
       ends_tolerance="0;1"
       parallel_offset="1.6;1"
       tremble_size="0;1"
       tremble_frequency="1.51"
       nbtangents="1"
       tgt_places_rdmness="1;1"
       tgtscale="5"
       tgtlength="5"
       tgtlength_rdm="0;1" />
    <inkscape:path-effect
       effect="skeletal"
       id="path-effect1572"
       is_visible="true"
       lpeversion="1"
       pattern="M 0,0 H 1"
       copytype="repeated"
       prop_scale="1000"
       scale_y_rel="false"
       spacing="0"
       normal_offset="0"
       tang_offset="0.1"
       prop_units="false"
       vertical_pattern="false"
       hide_knot="false"
       fuse_tolerance="0" />
    <inkscape:path-effect
       effect="rough_hatches"
       id="path-effect1057"
       is_visible="true"
       lpeversion="1"
       direction="278.00581,11.603309 , -10.626111,-0.13282648"
       dist_rdm="1;1"
       growth="0"
       do_bend="true"
       bender="267.51252,13.5483 , 14.96199,2.7893561"
       bottom_edge_variation="5;1"
       top_edge_variation="5;1"
       bottom_tgt_variation="0;1"
       top_tgt_variation="0;1"
       scale_bf="1"
       scale_bb="1"
       scale_tf="1"
       scale_tb="1"
       top_smth_variation="0;1"
       bottom_smth_variation="0;1"
       fat_output="false"
       stroke_width_top="1"
       stroke_width_bottom="1"
       front_thickness="1"
       back_thickness="0.25" />
  </defs>
  <g
     inkscape:label="Layer 1"
     inkscape:groupmode="layer"
     id="layer1">
    <path
       style="fill:none;stroke:#000000;stroke-width:0.565639px;stroke-linecap:butt;stroke-linejoin:miter;stroke-opacity:1"
       d="m 532.36852,20.674772 c 0,0 -2.59017,-3.861602 -6.37296,-7.804415 -3.70487,-3.8616018 -8.60236,-7.8044147 -8.60236,-7.8044147 0,0 -5.88123,4.6120349 -13.52299,9.3278527 -7.47359,4.612035 -16.70772,9.327852 -16.70772,9.327852 -0.72239,0 -7.4184,-4.145512 -15.19186,-8.291024 C 464.26859,11.3232 455.34627,7.1396 455.34627,7.1396 c 0,0 -1.55988,1.4051289 -4.21134,3.494265 -2.79358,2.201122 -6.34154,4.787408 -10.83808,7.687383 -4.49653,2.899976 -8.96885,5.486262 -13.00112,7.687384 -3.85249,2.102981 -6.62466,3.494265 -6.62466,3.494265 -0.35307,0 -1.44919,-1.387428 -3.22505,-3.468571 -1.89054,-2.215552 -4.1582,-4.72159 -7.26819,-7.630856 -3.08638,-2.88718 -6.22382,-5.437392 -9.13475,-7.630857 -2.77147,-2.0883739 -4.8086,-3.4685709 -4.8086,-3.4685709 0,0 -7.36179,5.0231789 -16.82631,10.1619279 -9.25167,5.023178 -20.60606,10.161927 -20.60606,10.161927 -0.42443,0 -1.63504,-1.43771 -3.56687,-3.594274 -2.06114,-2.300934 -4.50006,-4.887614 -7.85629,-7.907402 -3.32643,-2.992967 -6.69688,-5.633291 -9.82661,-7.9074028 -2.97853,-2.1642473 -5.16534,-3.5942739 -5.16534,-3.5942739 0,0 -9.01884,2.3261065 -18.49084,4.6657388 -9.41724,2.3261069 -19.28765,4.6657389 -19.28765,4.6657389 -0.95664,0 -11.32039,-1.699542 -21.65643,-3.399083 -10.33604,-1.6995416 -20.64436,-3.3990831 -20.64436,-3.3990831 0,0 -8.67555,3.3985601 -18.31715,6.8365831 -9.53092,3.39856 -20.0279,6.836583 -20.0279,6.836583 -0.94959,0 -10.92282,-2.870144 -21.26169,-5.740288 -10.29804,-2.85881 -21.04338,-5.7402877 -21.04338,-5.7402877 0,0 -10.1111,4.2062587 -21.7054,8.4746627 -11.42549,4.206259 -24.33418,8.474663 -24.33418,8.474663 -1.0456,0 -10.33287,-3.929189 -20.48891,-7.858378 -10.084364,-3.901457 -21.180862,-7.858378 -21.180862,-7.858378 0,0 -11.930531,4.213947 -25.352585,8.483378 -13.247627,4.213947 -27.986777,8.483378 -27.986777,8.483378 -1.240538,0 -4.391595,-4.473038 -8.697204,-8.946075 -4.254246,-4.419677 -9.765771,-8.9460754 -9.765771,-8.9460754 0,0 5.511525,4.5263984 9.765771,8.9460754 4.305609,4.473037 7.456666,8.946075 8.697204,8.946075 0,0 14.73915,-4.269431 27.986777,-8.483378 13.422054,-4.269431 25.352585,-8.483378 25.352585,-8.483378 0,0 11.096498,3.956921 21.180862,7.858378 10.15604,3.929189 19.44331,7.858378 20.48891,7.858378 0,0 12.90869,-4.268404 24.33418,-8.474663 11.5943,-4.268404 21.7054,-8.4746627 21.7054,-8.4746627 0,0 10.74534,2.8814777 21.04338,5.7402877 10.33887,2.870144 20.3121,5.740288 21.26169,5.740288 0,0 10.49698,-3.438023 20.0279,-6.836583 9.6416,-3.438023 18.31715,-6.8365831 18.31715,-6.8365831 0,0 10.30832,1.6995415 20.64436,3.3990831 10.33604,1.699541 20.69979,3.399083 21.65643,3.399083 0,0 9.87041,-2.339632 19.28765,-4.6657389 9.472,-2.3396323 18.49084,-4.6657388 18.49084,-4.6657388 0,0 2.18681,1.4300266 5.16534,3.5942739 3.12973,2.2741118 6.50018,4.9144358 9.82661,7.9074028 3.35623,3.019788 5.79515,5.606468 7.85629,7.907402 1.93183,2.156564 3.14244,3.594274 3.56687,3.594274 0,0 11.35439,-5.138749 20.60606,-10.161927 9.46452,-5.138749 16.82631,-10.1619279 16.82631,-10.1619279 0,0 2.03713,1.380197 4.8086,3.4685709 2.91093,2.193465 6.04837,4.743677 9.13475,7.630857 3.10999,2.909266 5.37765,5.415304 7.26819,7.630856 1.77586,2.081143 2.87198,3.468571 3.22505,3.468571 0,0 2.77217,-1.391284 6.62466,-3.494265 4.03227,-2.201122 8.50459,-4.787408 13.00112,-7.687384 4.49654,-2.899975 8.0445,-5.486261 10.83808,-7.687383 2.65146,-2.0891361 4.21134,-3.494265 4.21134,-3.494265 0,0 8.92232,4.1836 16.62436,8.291023 7.77346,4.145512 14.46947,8.291024 15.19186,8.291024 0,0 9.23413,-4.715817 16.70772,-9.327852 7.64176,-4.7158178 13.52299,-9.3278527 13.52299,-9.3278527 0,0 4.89749,3.9428129 8.60236,7.8044147 3.78279,3.942813 6.37296,7.804415 6.37296,7.804415 z"
       id="path42"
       sodipodi:nodetypes="cccc"
       inkscape:path-effect="#path-effect2262"
       inkscape:original-d="M 533.7059,20.674772 H -34.233192 l 0.03543,-10.527379 567.886842,-6.0015686 z" />
  </g>
</svg>
